PathFileType	4	(X/Y/Z)	E:\Qualisys_Data\Carbon_Farble_Plate\Data\Amateur_Runner\S1\T3\S1T3V23_c3d.trc
DataRate	CameraRate	NumFrames	NumMarkers	Units	OrigDataRate	OrigDataStartFrame	OrigNumFrames
200.000000	200.000000	4	39	mm	200.000000	185	296
Frame#	Time	LSHO			RSHO			LICST			RICST			LASIS			LHEEL			RASIS			LTROC			RTROC			SACR			LTH1			LSK4			LTH2			LTH3			RHM5			LSK2			LTH4			RTH1			LTOE			RTH2			RTH3			RTH4			LLEP			RLEP			LSK1			LSK3			RSK1			LHM5			RSK2			LFT1			RSK3			RSK4			LLME			RLME			RTOE			RHEEL			RFT1			RFT2			LFT2			
		X1	Y1	Z1	X2	Y2	Z2	X3	Y3	Z3	X4	Y4	Z4	X5	Y5	Z5	X6	Y6	Z6	X7	Y7	Z7	X8	Y8	Z8	X9	Y9	Z9	X10	Y10	Z10	X11	Y11	Z11	X12	Y12	Z12	X13	Y13	Z13	X14	Y14	Z14	X15	Y15	Z15	X16	Y16	Z16	X17	Y17	Z17	X18	Y18	Z18	X19	Y19	Z19	X20	Y20	Z20	X21	Y21	Z21	X22	Y22	Z22	X23	Y23	Z23	X24	Y24	Z24	X25	Y25	Z25	X26	Y26	Z26	X27	Y27	Z27	X28	Y28	Z28	X29	Y29	Z29	X30	Y30	Z30	X31	Y31	Z31	X32	Y32	Z32	X33	Y33	Z33	X34	Y34	Z34	X35	Y35	Z35	X36	Y36	Z36	X37	Y37	Z37	X38	Y38	Z38	X39	Y39	Z39	

186	0.925	773.3429565429688	1515.287719726562	-535.9169311523438	832.2240600585938	1500.463745117188	-214.6869659423828	789.4185791015625	1042.056274414062	-497.5384216308594	806.10986328125	1054.388671875	-199.7916870117188	837.1749877929688	1004.943542480469	-470.58056640625	757.4344482421875	285.4452819824219	-398.9315490722656	840.5537719726562	1002.633972167969	-207.9421539306641	753.2047729492188	922.1074829101562	-519.5523681640625	716.0826416015625	928.91455078125	-179.0683135986328	680.4977416992188	1063.547729492188	-342.0208435058594	946.3386840820312	873.3076171875	-476.4491271972656	847.5043334960938	416.8478393554688	-430.1080932617188	894.8836669921875	815.8892822265625	-514.6666259765625	1017.621215820312	797.8076782226562	-466.6482238769531	444.593505859375	68.82936096191406	-209.8100128173828	906.379638671875	494.6622619628906	-467.432861328125	959.651123046875	741.1759643554688	-495.4332275390625	806.4202270507812	773.5123901367188	-202.2312774658203	977.8919067382812	163.8077697753906	-394.6821899414062	734.4432983398438	792.886474609375	-172.1159362792969	775.5222778320312	677.5283813476562	-214.4552154541016	701.1605834960938	699.4630737304688	-189.2263031005859	1060.347412109375	638.029296875	-460.5444030761719	666.8535766601562	531.4536743164062	-228.5519561767578	973.2357177734376	444.7379150390625	-456.55224609375	908.7660522460938	367.0113220214844	-450.4981079101562	552.90966796875	376.3897399902344	-207.7433776855469	907.3969116210938	174.3898010253906	-456.1869201660156	486.9196472167969	424.3485412597656	-215.9217529296875	752.7926635742188	257.1184387207031	-367.6984252929688	496.194091796875	293.7131042480469	-216.1523590087891	432.7331848144531	341.4043273925781	-237.9957580566406	817.898193359375	283.564453125	-443.4693908691406	391.2109069824219	205.3271484375	-214.7205963134766	492.9302978515625	51.45159530639648	-283.599609375	302.2925415039062	203.3728790283203	-261.2406311035156	293.871826171875	176.8313140869141	-290.8912658691406	289.1385192871094	181.9699554443359	-239.9141540527344	748.6442260742188	253.7523345947266	-418.830810546875
187	0.93	792.458251953125	1517.948974609375	-536.6847534179688	854.1777954101562	1504.52685546875	-216.5192108154297	814.93408203125	1045.795288085938	-497.33154296875	829.3273315429688	1056.985717773438	-200.5822296142578	858.9472045898438	1008.049743652344	-471.4036865234375	794.74853515625	273.4676208496094	-399.2835998535156	863.5849609375	1005.04736328125	-209.1366729736328	775.4971923828125	926.3186645507812	-519.98974609375	738.2603759765625	932.7147216796876	-179.7800750732422	703.3268432617188	1067.830322265625	-342.6061401367188	968.4390258789062	876.7788696289062	-476.2662658691406	878.2618408203125	409.5684204101562	-430.7803344726562	916.8269653320312	819.6284790039062	-514.435791015625	1039.495849609375	801.1546630859375	-466.3298950195312	449.47265625	70.67862701416016	-209.7122192382812	933.3253173828124	489.7342529296875	-468.3834228515625	981.3548583984376	744.3992309570312	-494.8895874023438	825.193359375	775.66796875	-202.4808502197266	1020.713195800781	162.7785491943359	-395.6661376953125	753.6790161132812	796.7181396484375	-172.6856842041016	792.1417236328125	680.2537231445312	-214.7726593017578	718.7169799804688	703.97509765625	-189.6083679199219	1081.778198242188	640.9219360351562	-460.6487426757812	680.9086303710938	536.2976684570312	-228.6050415039062	1002.434020996094	443.1359558105469	-457.0682678222656	941.548583984375	362.4204711914062	-450.8772277832031	565.9874877929688	382.2181396484375	-206.9270629882812	950.1573486328124	170.1633758544922	-457.0272216796875	500.0095825195312	430.3096923828125	-215.2483367919922	791.0465698242188	244.3342742919922	-368.6541748046875	508.8314514160156	299.7174682617188	-215.05419921875	445.5547180175781	347.5064086914062	-237.4161224365234	855.1907348632812	274.6123046875	-443.6153259277344	403.6819152832031	211.2820281982422	-214.0309295654297	496.7697448730469	50.28370666503906	-283.5345153808594	316.431884765625	215.4249877929688	-261.1334228515625	306.5179443359375	189.5359649658203	-291.0575256347656	302.1736145019531	194.4115753173828	-240.07666015625	787.57763671875	241.26220703125	-419.4135437011719
188	0.935	811.8756103515625	1520.574829101562	-537.5850830078125	875.7691040039062	1508.592163085938	-218.3732299804688	836.596923828125	1049.390014648438	-497.9656677246094	852.453857421875	1059.3515625	-201.6735687255859	880.1911010742188	1010.635314941406	-472.1427307128906	832.2433471679688	261.5658874511719	-399.6490783691406	886.3174438476562	1007.133361816406	-210.3289337158203	797.2172241210938	930.2646484375	-520.5106811523438	760.2169189453125	936.6107177734376	-180.0901489257812	726.1405029296875	1071.226318359375	-342.9412536621094	990.0390014648438	879.947265625	-476.4703369140625	910.1324462890624	401.7980041503906	-431.804931640625	938.22412109375	822.8262329101562	-514.34130859375	1060.853637695312	803.9677124023438	-466.0448913574219	454.7515869140625	73.15367126464844	-208.8717193603516	960.3800659179688	484.5887451171875	-469.3537292480469	1002.368591308594	747.3819580078125	-493.9157104492188	844.020263671875	778.21728515625	-202.4274597167969	1063.27197265625	162.3380126953125	-396.3834228515625	772.929931640625	800.6904907226562	-173.2840423583984	809.4763793945312	683.3787231445312	-214.3420715332031	736.2503051757812	708.8096923828125	-190.3545074462891	1102.484008789062	643.1531982421875	-460.7779235839844	695.6396484375	541.3844604492188	-228.5418395996094	1031.558227539062	441.3446655273438	-457.731201171875	974.7139282226562	357.972412109375	-451.6534729003906	579.2351684570312	388.41796875	-206.3144226074219	992.5858154296876	166.5105895996094	-457.8916015625	513.3724975585938	436.5356140136719	-214.7871246337891	829.90771484375	232.0816497802734	-369.4002685546875	522.0086059570312	305.9247436523438	-213.8463592529297	458.8262329101562	353.8262329101562	-236.8045959472656	892.114501953125	266.0846557617188	-444.0918579101562	416.9676513671875	217.1861267089844	-213.5664825439453	500.8828735351562	49.45879364013672	-283.1439819335938	331.8736267089844	227.0735931396484	-261.1307067871094	320.9888610839844	202.8125610351562	-291.6712951660156	316.5369873046875	207.4786224365234	-240.0267181396484	826.3983154296875	229.3189392089844	-420.3890075683594
189	0.94	831.4035034179688	1522.909301757812	-538.5841674804688	897.241455078125	1512.366088867188	-219.9992218017578	858.6884765625	1052.595458984375	-498.6290588378906	875.4827270507812	1061.851684570312	-202.2835998535156	902.3762817382812	1013.410278320312	-472.6995544433594	869.7865600585938	249.8876647949219	-399.8041687011719	909.204833984375	1009.341918945312	-211.3608551025391	819.187255859375	933.9964599609376	-521.8746337890625	782.1348266601562	940.0980834960938	-180.8579254150391	749.0860595703125	1074.746826171875	-342.7784423828125	1011.542846679688	882.7451171875	-477.1863403320312	940.7986450195312	394.0099487304688	-432.3800354003906	959.25927734375	825.2839965820312	-514.0801391601562	1081.81298828125	806.430419921875	-466.2691345214844	461.2738952636719	75.67091369628906	-208.2840881347656	987.12646484375	479.0656127929688	-470.3104248046875	1022.70166015625	749.7989501953125	-493.3152770996094	863.1656494140625	780.5800170898438	-202.2359619140625	1105.675048828125	162.378173828125	-397.6832580566406	792.2928466796875	804.214599609375	-173.5195922851562	826.4981079101562	686.4615478515625	-213.9867401123047	753.559326171875	713.3598022460938	-190.5335693359375	1122.96533203125	644.6312255859375	-461.1156921386719	710.3368530273438	546.2653198242188	-228.867919921875	1061.161743164062	439.4533996582031	-458.956787109375	1007.262512207031	353.5393371582031	-452.4261779785156	592.8693237304688	394.199951171875	-205.3504486083984	1034.401489257812	163.1259155273438	-459.2190246582031	527.1178588867188	442.7333068847656	-214.4695281982422	868.9898071289062	220.2761077880859	-369.3809204101562	535.6163330078125	311.8861083984375	-213.3662719726562	472.3403015136719	359.9334411621094	-236.29248046875	929.3593139648438	257.6347961425781	-444.5827941894531	430.4540710449219	222.9872741699219	-212.9609832763672	506.1273193359375	48.692626953125	-282.5684204101562	348.8327941894531	238.7432556152344	-260.764404296875	336.6230163574219	215.78955078125	-291.4138488769531	331.876953125	220.4875335693359	-240.0980682373047	865.3231811523438	217.3375244140625	-420.3711853027344
